# xmcd
#
# Track frame offsets:
#	150
#	9659
#	16474
#	25422
#	34597
#	45497
#	53880
#	62805
#	72813
#	84212
#	97314
#	105888
#	118288
#	129407
#	135881
#	145041
#	158926
#	168985
#	178245
#
# Disc length: 2475 seconds
#
# Revision: 11
# Processed by: cddbd v1.5.2PL0 Copyright (c) Steve Scherf et al.
# Submitted via: Jack! The Knife 20 Magnifico
#
DISCID=f909a913
DTITLE=La Polla Records - El Ultimo (el) De La Polla
DYEAR=2003
DGENRE=Punk
TTITLE0=Bandejitas, Latas Y Paquetes
TTITLE1=Sin Escrupulos
TTITLE2=Susanita Tiene Un Marron
TTITLE3=Violencia
TTITLE4=Futuro Perfecto
TTITLE5=Hoy Vamos A Explicar La Palabra Feo
TTITLE6=Punkyfer
TTITLE7=¡¡Ou Yea!!
TTITLE8=Nadie Es Inocente
TTITLE9=Iros Todos A La Mierda
TTITLE10=Loco Mambo
TTITLE11=Control L'amour
TTITLE12=Y Ahora Unos Minutos De Publicidad
TTITLE13=Rincones
TTITLE14=Dios
TTITLE15=Hombres De Respeto
TTITLE16=Series De Maderos
TTITLE17=A Tu Lado
TTITLE18=Pista No Muy Oculta
EXTD=
EXTT0=
EXTT1=
EXTT2=
EXTT3=
EXTT4=
EXTT5=
EXTT6=
EXTT7=
EXTT8=
EXTT9=
EXTT10=
EXTT11=
EXTT12=
EXTT13=
EXTT14=
EXTT15=
EXTT16=
EXTT17=
EXTT18=
PLAYORDER=
